HIERARCHY
ROOT hip
{
  OFFSET 0 0 0
  CHANNELS 6 Xposition Yposition Zposition Zrotation Yrotation Xrotation
  JOINT abdomen
  {
    OFFSET 0 20.6881 -0.73152
    CHANNELS 3 Zrotation Xrotation Yrotation
    JOINT chest
    {
      OFFSET 0 11.7043 -0.48768
      CHANNELS 3 Zrotation Xrotation Yrotation
      JOINT neck
      {
        OFFSET 0 22.1894 -2.19456
        CHANNELS 3 Zrotation Xrotation Yrotation
        JOINT head
        {
          OFFSET -0.24384 7.07133 1.2192
          CHANNELS 3 Zrotation Xrotation Yrotation
          JOINT leftEye
          {
            OFFSET 4.14528 8.04674 8.04672
            CHANNELS 3 Zrotation Xrotation Yrotation
            End Site
            {
              OFFSET 1 0 0
            }
          }
          JOINT rightEye
          {
            OFFSET -3.6576 8.04674 8.04672
            CHANNELS 3 Zrotation Xrotation Yrotation
            End Site
            {
              OFFSET 1 0 0
            }
          }
        }
      }
      JOINT rCollar
      {
        OFFSET -2.68224 19.2634 -4.8768
        CHANNELS 3 Zrotation Xrotation Yrotation
        JOINT rShldr
        {
          OFFSET -8.77824 -1.95073 1.46304
          CHANNELS 3 Zrotation Xrotation Yrotation
          JOINT rForeArm
          {
            OFFSET -28.1742 -1.7115 0.48768
            CHANNELS 3 Zrotation Xrotation Yrotation
            JOINT rHand
            {
              OFFSET -22.5879 0.773209 7.07136
              CHANNELS 3 Zrotation Xrotation Yrotation
              JOINT rThumb1
              {
                OFFSET -1.2192 -0.487915 3.41376
                CHANNELS 3 Zrotation Xrotation Yrotation
                JOINT rThumb2
                {
                  OFFSET -3.37035 -0.52449 3.41376
                  CHANNELS 3 Zrotation Xrotation Yrotation
                  End Site
                  {
                    OFFSET -1.78271 -1.18214 1.43049
                  }
                }
              }
              JOINT rIndex1
              {
                OFFSET -7.75947 0.938293 5.60832
                CHANNELS 3 Zrotation Xrotation Yrotation
                JOINT rIndex2
                {
                  OFFSET -2.54057 -0.884171 1.56538
                  CHANNELS 3 Zrotation Xrotation Yrotation
                  End Site
                  {
                    OFFSET -1.62519 -0.234802 1.16502
                  }
                }
              }
              JOINT rMid1
              {
                OFFSET -8.24714 1.18213 3.41376
                CHANNELS 3 Zrotation Xrotation Yrotation
                JOINT rMid2
                {
                  OFFSET -3.10165 -0.590103 1.0647
                  CHANNELS 3 Zrotation Xrotation Yrotation
                  End Site
                  {
                    OFFSET -2.48547 -0.328903 0.83742
                  }
                }
              }
              JOINT rRing1
              {
                OFFSET -8.82822 0.546677 1.51678
                CHANNELS 3 Zrotation Xrotation Yrotation
                JOINT rRing2
                {
                  OFFSET -2.60934 -0.819778 -0.0198488
                  CHANNELS 3 Zrotation Xrotation Yrotation
                  End Site
                  {
                    OFFSET -2.33842 -0.294052 0.168128
                  }
                }
              }
              JOINT rPinky1
              {
                OFFSET -8.27202 -0.0477905 -0.4584
                CHANNELS 3 Zrotation Xrotation Yrotation
                JOINT rPinky2
                {
                  OFFSET -1.82734 -0.647385 -0.700984
                  CHANNELS 3 Zrotation Xrotation Yrotation
                  End Site
                  {
                    OFFSET -1.69225 -0.51767 -0.607171
                  }
                }
              }
            }
          }
        }
      }
      JOINT lCollar
      {
        OFFSET 2.68224 19.2634 -4.8768
        CHANNELS 3 Zrotation Xrotation Yrotation
        JOINT lShldr
        {
          OFFSET 8.77824 -1.95073 1.46304
          CHANNELS 3 Zrotation Xrotation Yrotation
          JOINT lForeArm
          {
            OFFSET 28.1742 -1.7115 0.48768
            CHANNELS 3 Zrotation Xrotation Yrotation
            JOINT lHand
            {
              OFFSET 22.5879 0.773209 7.07136
              CHANNELS 3 Zrotation Xrotation Yrotation
              JOINT lThumb1
              {
                OFFSET 1.2192 -0.487915 3.41376
                CHANNELS 3 Zrotation Xrotation Yrotation
                JOINT lThumb2
                {
                  OFFSET 3.37035 -0.52449 3.41376
                  CHANNELS 3 Zrotation Xrotation Yrotation
                  End Site
                  {
                    OFFSET 1.78271 -1.18214 1.43049
                  }
                }
              }
              JOINT lIndex1
              {
                OFFSET 7.75947 0.938293 5.60832
                CHANNELS 3 Zrotation Xrotation Yrotation
                JOINT lIndex2
                {
                  OFFSET 2.54057 -0.884171 1.56538
                  CHANNELS 3 Zrotation Xrotation Yrotation
                  End Site
                  {
                    OFFSET 1.62519 -0.234802 1.16502
                  }
                }
              }
              JOINT lMid1
              {
                OFFSET 8.24714 1.18213 3.41376
                CHANNELS 3 Zrotation Xrotation Yrotation
                JOINT lMid2
                {
                  OFFSET 3.10165 -0.590103 1.0647
                  CHANNELS 3 Zrotation Xrotation Yrotation
                  End Site
                  {
                    OFFSET 2.48547 -0.328903 0.83742
                  }
                }
              }
              JOINT lRing1
              {
                OFFSET 8.82822 0.546677 1.51678
                CHANNELS 3 Zrotation Xrotation Yrotation
                JOINT lRing2
                {
                  OFFSET 2.60934 -0.819778 -0.0198488
                  CHANNELS 3 Zrotation Xrotation Yrotation
                  End Site
                  {
                    OFFSET 2.33842 -0.294052 0.168128
                  }
                }
              }
              JOINT lPinky1
              {
                OFFSET 8.27202 -0.0477905 -0.4584
                CHANNELS 3 Zrotation Xrotation Yrotation
                JOINT lPinky2
                {
                  OFFSET 1.82734 -0.647385 -0.700984
                  CHANNELS 3 Zrotation Xrotation Yrotation
                  End Site
                  {
                    OFFSET 1.69225 -0.51767 -0.607171
                  }
                }
              }
            }
          }
        }
      }
    }
  }
  JOINT rButtock
  {
    OFFSET -8.77824 4.35084 1.2192
    CHANNELS 3 Zrotation Xrotation Yrotation
    JOINT rThigh
    {
      OFFSET 0 -1.70687 -2.19456
      CHANNELS 3 Zrotation Xrotation Yrotation
      JOINT rShin
      {
        OFFSET 0 -36.8199 0.73152
        CHANNELS 3 Zrotation Xrotation Yrotation
        JOINT rFoot
        {
          OFFSET 0.73152 -45.1104 -5.12064
          CHANNELS 3 Zrotation Xrotation Yrotation
          End Site
          {
            OFFSET -1.1221 -3.69964 12.103
          }
        }
      }
    }
  }
  JOINT lButtock
  {
    OFFSET 8.77824 4.35084 1.2192
    CHANNELS 3 Zrotation Xrotation Yrotation
    JOINT lThigh
    {
      OFFSET 0 -1.70687 -2.19456
      CHANNELS 3 Zrotation Xrotation Yrotation
      JOINT lShin
      {
        OFFSET 0 -36.8199 0.73152
        CHANNELS 3 Zrotation Xrotation Yrotation
        JOINT lFoot
        {
          OFFSET -0.73152 -45.1104 -5.12064
          CHANNELS 3 Zrotation Xrotation Yrotation
          End Site
          {
            OFFSET 1.1221 -3.69964 12.103
          }
        }
      }
    }
  }
}
MOTION
Frames:	6
Frame Time:	0.00833333
20.7604 84.9248 250.077 0.0 0.0 0.0 -0.112402 -0.00252036 -0.00326497 -0.0310778 -0.00419856 -0.00538468 -6.65788e-16 0.0 1.553e-18 -1.95057e-15 3.18055e-15 3.10601e-18 -0.0 0.0 0.0 -0.0 0.0 0.0 -2.00156e-16 -6.60027e-18 1.98785e-16 -5.5947e-15 -9.93923e-17 5.96354e-16 -1.15394e-13 3.06128e-14 -3.18055e-15 -1.3369e-12 -5.50137e-14 -6.36111e-15 -3.1538e-12 -5.16188e-14 9.54166e-15 -5.46578e-12 -8.5875e-14 -7.95139e-16 -3.15113e-12 -5.20816e-14 -3.18055e-15 7.73091 5.47488 0.417314 -3.15407e-12 -5.22804e-14 9.54166e-15 2.90554 0.965183 0.102902 -3.14633e-12 -5.17834e-14 5.56597e-15 10.2786 0.731801 0.0259123 -3.16147e-12 -4.73108e-14 9.54166e-15 2.22167 -0.733487 -0.20892 -3.9622e-16 -6.21202e-18 -1.98785e-16 -7.93013e-15 -3.04389e-16 -5.96354e-16 -1.19867e-13 -3.85642e-14 1.59028e-14 -1.33821e-12 1.80894e-14 3.18055e-15 -3.15856e-12 -4.16453e-14 9.54166e-15 -5.44312e-12 -6.67917e-14 2.38542e-14 -3.16425e-12 -4.29375e-14 2.54444e-14 -7.73091 5.47488 -0.417314 -3.1576e-12 -4.19436e-14 9.54166e-15 -2.90554 0.965183 -0.102902 -3.16746e-12 -4.17448e-14 9.54166e-15 -10.2786 0.731801 -0.0259123 -3.15014e-12 -3.81667e-14 0.0 -2.22167 -0.733487 0.20892 -2.03217e-16 0.0 -3.88251e-19 0.354951 -2.94056 -0.0354306 -0.00588109 -0.224753 -0.0517722 -0.439803 3.16568 0.113078 2.03217e-16 0.0 3.88251e-19 -0.527751 -3.42453 0.0465076 0.00449878 0.651855 0.0390517 0.443071 2.77306 -0.105713
20.2641 81.5796 245.001 176.057 -8.844 -152.341 -1.80605 -6.62686 -0.808749 2.75525 -4.26516 -0.35301 5.32083 5.19073 5.27285 -4.3125 4.62209 9.68545 -0.0 0.0 0.0 -0.0 0.0 0.0 -2.76209e-14 -8.29361e-14 -1.55673e-14 16.8819 9.16829 -5.65018 -5.31431 -2.68178 7.98989 0.0105081 2.2742 0.318709 2.41122e-10 -4.63923e-10 1.80363e-10 4.18151e-10 -8.02134e-10 3.09979e-10 2.41126e-10 -4.63924e-10 1.8035e-10 7.73091 5.47488 0.417314 2.41122e-10 -4.63925e-10 1.80361e-10 2.90554 0.965183 0.102902 2.4113e-10 -4.63925e-10 1.80357e-10 10.2786 0.731801 0.0259123 2.41117e-10 -4.63921e-10 1.80359e-10 2.22167 -0.733487 -0.20892 -2.78143e-14 -8.29343e-14 -1.59253e-14 -23.5007 12.2853 5.95549 17.2436 -14.7238 -14.9889 -0.0273849 3.67767 -0.513042 -3.57613e-10 2.88574e-10 4.63945e-10 -6.12526e-10 5.38835e-10 8.04775e-10 -3.57616e-10 2.88576e-10 4.63958e-10 -7.73091 5.47488 -0.417314 -3.57611e-10 2.88577e-10 4.63944e-10 -2.90554 0.965183 -0.102902 -3.57622e-10 2.88578e-10 4.63945e-10 -10.2786 0.731801 -0.0259123 -3.57605e-10 2.8858e-10 4.63936e-10 -2.22167 -0.733487 0.20892 -2.03217e-16 0.0 -3.88251e-19 -2.19353 -18.5965 0.80039 0.0409343 12.7704 0.165874 -1.0816 -0.583587 -4.40065 2.03217e-16 0.0 3.88251e-19 -3.13183 -14.4832 -3.19541 -0.0452076 9.45146 -0.139583 0.819225 -1.49387 3.33263
20.2706 81.6002 244.858 176.075 -8.6251 -152.3 -3.80376 -13.6237 -1.69723 5.64693 -8.76687 -0.726521 9.91452 10.569 11.0053 -10.5765 9.01901 20.1669 -0.0 0.0 0.0 -0.0 0.0 0.0 -5.82295e-14 -1.71854e-13 -3.1234e-14 36.775 18.5664 -12.114 -10.127 -5.34284 16.4917 -0.00597335 4.6766 0.65709 5.30839e-10 -9.83925e-10 3.69973e-10 9.20398e-10 -1.70105e-09 6.35543e-10 5.30845e-10 -9.83927e-10 3.6996e-10 7.73091 5.47488 0.417314 5.3084e-10 -9.83929e-10 3.6997e-10 2.90554 0.965183 0.102902 5.30847e-10 -9.83929e-10 3.69965e-10 10.2786 0.731801 0.0259123 5.30836e-10 -9.83926e-10 3.69964e-10 2.22167 -0.733487 -0.20892 -5.84206e-14 -1.71851e-13 -3.15509e-14 -51.3537 24.8067 13.2198 26.6681 -26.8095 -33.8363 0.0160031 7.58788 -1.06577 -7.26313e-10 5.28901e-10 9.36992e-10 -1.244e-09 9.96e-10 1.62541e-09 -7.26313e-10 5.28905e-10 9.37002e-10 -7.73091 5.47488 -0.417314 -7.2631e-10 5.28907e-10 9.3699e-10 -2.90554 0.965183 -0.102902 -7.26321e-10 5.28908e-10 9.36992e-10 -10.2786 0.731801 -0.0259123 -7.26305e-10 5.28908e-10 9.36984e-10 -2.22167 -0.733487 0.20892 -2.03217e-16 0.0 -3.88251e-19 -4.28878 -35.1233 1.94189 -0.0276822 26.5435 0.433706 -2.40204 -4.50273 -9.19164 2.03217e-16 0.0 3.88251e-19 -7.3894 -26.0533 -7.14408 -0.0349944 18.769 -0.342497 1.77295 -5.96807 6.99289
20.2774 81.6517 244.709 176.092 -8.4514 -152.26 -5.78199 -19.8593 -2.55558 8.16943 -12.7852 -1.07191 13.0516 15.0365 16.3274 -17.4909 12.2774 29.7058 -0.0 0.0 0.0 -0.0 0.0 0.0 -8.24624e-14 -2.48795e-13 -4.70995e-14 56.5093 26.3737 -18.7456 -13.7562 -7.42087 24.1583 -0.0448343 6.82176 0.962186 7.29673e-10 -1.39166e-09 5.41069e-10 1.26539e-09 -2.40623e-09 9.29937e-10 7.29681e-10 -1.39167e-09 5.41055e-10 7.73091 5.47488 0.417314 7.29674e-10 -1.39167e-09 5.41065e-10 2.90554 0.965183 0.102902 7.29681e-10 -1.39167e-09 5.4106e-10 10.2786 0.731801 0.0259123 7.29673e-10 -1.39167e-09 5.41057e-10 2.22167 -0.733487 -0.20892 -8.26504e-14 -2.48791e-13 -4.73783e-14 -79.4468 35.0829 21.5042 28.2736 -31.2736 -53.5856 0.11857 11.0294 -1.56487 -1.06652e-09 8.65807e-10 1.39182e-09 -1.82669e-09 1.61664e-09 2.41428e-09 -1.06652e-09 8.65813e-10 1.39182e-09 -7.73091 5.47488 -0.417314 -1.06652e-09 8.65815e-10 1.39181e-09 -2.90554 0.965183 -0.102902 -1.06653e-09 8.65816e-10 1.39182e-09 -10.2786 0.731801 -0.0259123 -1.06652e-09 8.65816e-10 1.39181e-09 -2.22167 -0.733487 0.20892 -2.03217e-16 0.0 -3.88251e-19 -5.27492 -49.8564 3.64117 -0.228616 38.7585 0.755153 -4.13277 -7.86483 -13.557 2.03217e-16 0.0 3.88251e-19 -12.8482 -36.0978 -11.6295 0.0365305 27.0497 -0.551489 3.11672 -9.87495 10.3608
20.2842 81.708 244.548 176.104 -8.2714 -152.206 -7.28578 -24.2072 -3.20984 9.88154 -15.5967 -1.32465 14.6699 17.7535 20.1168 -22.9191 14.2035 36.2928 -0.0 0.0 0.0 -0.0 0.0 0.0 -9.07562e-14 -2.95793e-13 -6.3462e-14 71.5239 31.2821 -24.0662 -15.9453 -8.63649 29.5572 -0.0857547 8.3246 1.17833 7.013e-10 -1.51875e-09 6.65878e-10 1.21723e-09 -2.62707e-09 1.14641e-09 7.0131e-10 -1.51875e-09 6.65865e-10 7.73091 5.47488 0.417314 7.01303e-10 -1.51875e-09 6.65875e-10 2.90554 0.965183 0.102902 7.01308e-10 -1.51875e-09 6.65869e-10 10.2786 0.731801 0.0259123 7.01302e-10 -1.51875e-09 6.65865e-10 2.22167 -0.733487 -0.20892 -9.09389e-14 -2.95791e-13 -6.37105e-14 -101.343 41.4241 28.8519 27.8525 -29.7953 -66.9224 0.222088 13.3029 -1.90429 -1.33551e-09 1.44416e-09 1.80108e-09 -2.28744e-09 2.64596e-09 3.12372e-09 -1.3355e-09 1.44417e-09 1.80109e-09 -7.73091 5.47488 -0.417314 -1.3355e-09 1.44417e-09 1.80108e-09 -2.90554 0.965183 -0.102902 -1.33551e-09 1.44417e-09 1.80108e-09 -10.2786 0.731801 -0.0259123 -1.3355e-09 1.44417e-09 1.80107e-09 -2.22167 -0.733487 0.20892 -2.03217e-16 0.0 -3.88251e-19 -4.84382 -60.1425 5.88673 -0.485257 47.0804 1.06664 -5.64016 -10.0562 -16.7088 2.03217e-16 0.0 3.88251e-19 -17.8913 -42.7937 -15.6657 0.128035 32.7392 -0.723716 4.34719 -12.5149 12.8353
20.2919 81.7621 244.39 176.121 -8.0931 -152.158 -7.9117 -25.9221 -3.47927 10.5137 -16.72 -1.43083 15.1333 18.3978 21.4515 -25.0734 15.3091 38.5084 -0.0 0.0 0.0 -0.0 0.0 0.0 -7.30354e-14 -2.99566e-13 -8.87177e-14 77.7061 32.9818 -26.3101 -16.7354 -9.05318 31.6894 -0.105106 8.92122 1.26481 2.7747e-10 -1.18186e-09 7.20348e-10 4.84843e-10 -2.04739e-09 1.24501e-09 2.77485e-10 -1.18187e-09 7.20338e-10 7.73091 5.47488 0.417314 2.77476e-10 -1.18187e-09 7.20349e-10 2.90554 0.965183 0.102902 2.77477e-10 -1.18186e-09 7.20342e-10 10.2786 0.731801 0.0259123 2.77472e-10 -1.18186e-09 7.20339e-10 2.22167 -0.733487 -0.20892 -7.32132e-14 -2.99571e-13 -8.89515e-14 -110.516 43.7468 32.0841 27.8246 -28.2124 -71.5165 0.26042 13.9464 -2.00264 -1.54025e-09 2.56566e-09 2.22348e-09 -2.63817e-09 4.60622e-09 3.85517e-09 -1.54025e-09 2.56567e-09 2.22348e-09 -7.73091 5.47488 -0.417314 -1.54025e-09 2.56566e-09 2.22347e-09 -2.90554 0.965183 -0.102902 -1.54026e-09 2.56567e-09 2.22348e-09 -10.2786 0.731801 -0.0259123 -1.54025e-09 2.56567e-09 2.22347e-09 -2.22167 -0.733487 0.20892 -2.03217e-16 0.0 -3.88251e-19 -4.00181 -64.2633 7.52023 -0.611898 49.9645 1.20533 -6.28322 -10.7847 -18.0418 2.03217e-16 0.0 3.88251e-19 -20.1403 -45.2226 -17.479 0.172413 34.8072 -0.80073 4.92378 -13.4969 13.9319
